<svg width="325.12" height="222" fill="none" version="1.1" viewBox="0 0 325.12 222" xmlns="http://www.w3.org/2000/svg">
 <g fill="#000" fill-opacity=".2">
  <path d="m312 12h-16v2h16zm1 10v-2l-1-5h-16l-1 5v2h1v6h10v-6h4v6h2v-6zm-9 4h-6v-4h6z"/>
  <path d="m75.41 17.58-9-9c-0.36-0.36-0.86-0.58-1.41-0.58h-7c-1.1 0-2 0.9-2 2v7c0 0.55 0.22 1.05 0.59 1.42l9 9c0.36 0.36 0.86 0.58 1.41 0.58s1.05-0.22 1.41-0.59l7-7c0.37-0.36 0.59-0.86 0.59-1.41s-0.23-1.06-0.59-1.42zm-15.91-4.58c-0.83 0-1.5-0.67-1.5-1.5s0.67-1.5 1.5-1.5 1.5 0.67 1.5 1.5-0.67 1.5-1.5 1.5z"/>
  <path d="m122.78 9h-17.778v11.111c0 2.456 1.9889 4.445 4.444 4.445h6.667c2.456 0 4.445-1.989 4.445-4.445v-3.333h2.222c1.233 0 2.222-1 2.222-2.222v-3.334c0-1.233-0.989-2.222-2.222-2.222zm0 5.556h-2.222v-3.334h2.222zm-17.778 12.222h17.778v2.222h-17.778z"/>
  <path d="m209.36 18.207 2.83-2.83-7.02-7.01c-1.56 1.56-1.56 4.09 0 5.66zm6.78-1.81c1.53 0.71 3.68 0.21 5.27-1.38 1.91-1.91 2.28-4.65 0.81-6.12-1.46-1.46-4.2-1.1-6.12 0.81-1.59 1.59-2.09 3.74-1.38 5.27l-9.76 9.76 1.41 1.41 6.89-6.87 6.88 6.88 1.41-1.41-6.88-6.88z"/>
  <path d="m246 22h20v2h-20zm11.84-9.21c0.1-0.24 0.16-0.51 0.16-0.79 0-1.1-0.9-2-2-2s-2 0.9-2 2c0 0.28 0.06 0.55 0.16 0.79-3.91 0.81-6.89 4.14-7.16 8.21h18c-0.27-4.07-3.25-7.4-7.16-8.21z"/>
  <path d="m171 12h-18c-1.1 0-2 0.9-2 2v8c0 1.1 0.9 2 2 2h18c1.1 0 2-0.9 2-2v-8c0-1.1-0.9-2-2-2zm0 10h-18v-8h2v4h2v-4h2v4h2v-4h2v4h2v-4h2v4h2v-4h2z"/>
  <path d="m17 9c-4.97 0-9 4.03-9 9s4.03 9 9 9c0.83 0 1.5-0.67 1.5-1.5 0-0.39-0.15-0.74-0.39-1.01-0.23-0.26-0.38-0.61-0.38-0.99 0-0.83 0.67-1.5 1.5-1.5h1.77c2.76 0 5-2.24 5-5 0-4.42-4.03-8-9-8zm-5.5 9c-0.83 0-1.5-0.67-1.5-1.5s0.67-1.5 1.5-1.5 1.5 0.67 1.5 1.5-0.67 1.5-1.5 1.5zm3-4c-0.83 0-1.5-0.67-1.5-1.5s0.67-1.5 1.5-1.5 1.5 0.67 1.5 1.5-0.67 1.5-1.5 1.5zm5 0c-0.83 0-1.5-0.67-1.5-1.5s0.67-1.5 1.5-1.5 1.5 0.67 1.5 1.5-0.67 1.5-1.5 1.5zm3 4c-0.83 0-1.5-0.67-1.5-1.5s0.67-1.5 1.5-1.5 1.5 0.67 1.5 1.5-0.67 1.5-1.5 1.5z"/>
  <path d="m67 53c-4.97 0-9 4.03-9 9s4.03 9 9 9c0.83 0 1.5-0.67 1.5-1.5 0-0.39-0.15-0.74-0.39-1.01-0.23-0.26-0.38-0.61-0.38-0.99 0-0.83 0.67-1.5 1.5-1.5h1.77c2.76 0 5-2.24 5-5 0-4.42-4.03-8-9-8zm-5.5 9c-0.83 0-1.5-0.67-1.5-1.5s0.67-1.5 1.5-1.5 1.5 0.67 1.5 1.5-0.67 1.5-1.5 1.5zm3-4c-0.83 0-1.5-0.67-1.5-1.5s0.67-1.5 1.5-1.5 1.5 0.67 1.5 1.5-0.67 1.5-1.5 1.5zm5 0c-0.83 0-1.5-0.67-1.5-1.5s0.67-1.5 1.5-1.5 1.5 0.67 1.5 1.5-0.67 1.5-1.5 1.5zm3 4c-0.83 0-1.5-0.67-1.5-1.5s0.67-1.5 1.5-1.5 1.5 0.67 1.5 1.5-0.67 1.5-1.5 1.5z"/>
  <path d="m122.41 62.58-9-9c-0.36-0.36-0.86-0.58-1.41-0.58h-7c-1.1 0-2 0.9-2 2v7c0 0.55 0.22 1.05 0.59 1.42l9 9c0.36 0.36 0.86 0.58 1.41 0.58s1.05-0.22 1.41-0.59l7-7c0.37-0.36 0.59-0.86 0.59-1.41s-0.23-1.06-0.59-1.42zm-15.91-4.58c-0.83 0-1.5-0.67-1.5-1.5s0.67-1.5 1.5-1.5 1.5 0.67 1.5 1.5-0.67 1.5-1.5 1.5z"/>
  <path d="m170.41 109.58-9-9c-0.36-0.36-0.86-0.58-1.41-0.58h-7c-1.1 0-2 0.9-2 2v7c0 0.55 0.22 1.05 0.59 1.42l9 9c0.36 0.36 0.86 0.58 1.41 0.58s1.05-0.22 1.41-0.59l7-7c0.37-0.36 0.59-0.86 0.59-1.41s-0.23-1.06-0.59-1.42zm-15.91-4.58c-0.83 0-1.5-0.67-1.5-1.5s0.67-1.5 1.5-1.5 1.5 0.67 1.5 1.5-0.67 1.5-1.5 1.5z"/>
  <path d="m169.78 53h-17.778v11.111c0 2.456 1.989 4.445 4.444 4.445h6.667c2.456 0 4.445-1.989 4.445-4.445v-3.333h2.222c1.233 0 2.222-1 2.222-2.222v-3.334c0-1.233-0.989-2.222-2.222-2.222zm0 5.556h-2.222v-3.334h2.222zm-17.778 12.222h17.778v2.222h-17.778z"/>
  <path d="m217.78 101h-17.778v11.111c0 2.456 1.989 4.445 4.444 4.445h6.667c2.456 0 4.445-1.989 4.445-4.445v-3.333h2.222c1.233 0 2.222-1 2.222-2.222v-3.334c0-1.233-0.989-2.222-2.222-2.222zm0 5.556h-2.222v-3.334h2.222zm-17.778 12.222h17.778v2.222h-17.778z"/>
  <path d="m251.36 63.207 2.83-2.83-7.02-7.01c-1.56 1.56-1.56 4.09 0 5.66zm6.78-1.81c1.53 0.71 3.68 0.21 5.27-1.38 1.91-1.91 2.28-4.65 0.81-6.12-1.46-1.46-4.2-1.1-6.12 0.81-1.59 1.59-2.09 3.74-1.38 5.27l-9.76 9.76 1.41 1.41 6.89-6.87 6.88 6.88 1.41-1.41-6.88-6.88z"/>
  <path d="m303.36 111.21 2.83-2.83-7.02-7.01c-1.56 1.56-1.56 4.09 0 5.66zm6.78-1.81c1.53 0.71 3.68 0.21 5.27-1.38 1.91-1.91 2.28-4.65 0.81-6.12-1.46-1.46-4.2-1.1-6.12 0.81-1.59 1.59-2.09 3.74-1.38 5.27l-9.76 9.76 1.41 1.41 6.89-6.87 6.88 6.88 1.41-1.41-6.88-6.88z"/>
  <path d="m296 65h20v2h-20zm11.84-9.21c0.1-0.24 0.16-0.51 0.16-0.79 0-1.1-0.9-2-2-2s-2 0.9-2 2c0 0.28 0.06 0.55 0.16 0.79-3.91 0.81-6.89 4.14-7.16 8.21h18c-0.27-4.07-3.25-7.4-7.16-8.21z"/>
  <path d="m8 113h20v2h-20zm11.84-9.21c0.1-0.24 0.16-0.51 0.16-0.79 0-1.1-0.9-2-2-2s-2 0.9-2 2c0 0.28 0.06 0.55 0.16 0.79-3.91 0.81-6.89 4.14-7.16 8.21h18c-0.27-4.07-3.25-7.4-7.16-8.21z"/>
  <path d="m218 56h-18c-1.1 0-2 0.9-2 2v8c0 1.1 0.9 2 2 2h18c1.1 0 2-0.9 2-2v-8c0-1.1-0.9-2-2-2zm0 10h-18v-8h2v4h2v-4h2v4h2v-4h2v4h2v-4h2v4h2v-4h2z"/>
  <path d="m265 104h-18c-1.1 0-2 0.9-2 2v8c0 1.1 0.9 2 2 2h18c1.1 0 2-0.9 2-2v-8c0-1.1-0.9-2-2-2zm0 10h-18v-8h2v4h2v-4h2v4h2v-4h2v4h2v-4h2v4h2v-4h2z"/>
  <path d="m27 53h-16v2h16zm1 10v-2l-1-5h-16l-1 5v2h1v6h10v-6h4v6h2v-6zm-9 4h-6v-4h6z"/>
  <path d="m75 104h-16v2h16zm1 10v-2l-1-5h-16l-1 5v2h1v6h10v-6h4v6h2v-6zm-9 4h-6v-4h6z"/>
  <path d="m112 101c-4.97 0-9 4.03-9 9s4.03 9 9 9c0.83 0 1.5-0.67 1.5-1.5 0-0.39-0.15-0.74-0.39-1.01-0.23-0.26-0.38-0.61-0.38-0.99 0-0.83 0.67-1.5 1.5-1.5h1.77c2.76 0 5-2.24 5-5 0-4.42-4.03-8-9-8zm-5.5 9c-0.83 0-1.5-0.67-1.5-1.5s0.67-1.5 1.5-1.5 1.5 0.67 1.5 1.5-0.67 1.5-1.5 1.5zm3-4c-0.83 0-1.5-0.67-1.5-1.5s0.67-1.5 1.5-1.5 1.5 0.67 1.5 1.5-0.67 1.5-1.5 1.5zm5 0c-0.83 0-1.5-0.67-1.5-1.5s0.67-1.5 1.5-1.5 1.5 0.67 1.5 1.5-0.67 1.5-1.5 1.5zm3 4c-0.83 0-1.5-0.67-1.5-1.5s0.67-1.5 1.5-1.5 1.5 0.67 1.5 1.5-0.67 1.5-1.5 1.5z"/>
  <path d="m218.41 155.58-9-9c-0.36-0.36-0.86-0.58-1.41-0.58h-7c-1.1 0-2 0.9-2 2v7c0 0.55 0.22 1.05 0.59 1.42l9 9c0.36 0.36 0.86 0.58 1.41 0.58s1.05-0.22 1.41-0.59l7-7c0.37-0.36 0.59-0.86 0.59-1.41s-0.23-1.06-0.59-1.42zm-15.91-4.58c-0.83 0-1.5-0.67-1.5-1.5s0.67-1.5 1.5-1.5 1.5 0.67 1.5 1.5-0.67 1.5-1.5 1.5z"/>
  <path d="m265.78 147h-17.778v11.111c0 2.456 1.989 4.445 4.444 4.445h6.667c2.456 0 4.445-1.989 4.445-4.445v-3.333h2.222c1.233 0 2.222-1 2.222-2.222v-3.334c0-1.233-0.989-2.222-2.222-2.222zm0 5.556h-2.222v-3.334h2.222zm-17.778 12.222h17.778v2.222h-17.778z"/>
  <path d="m18.36 157.21 2.83-2.83-7.02-7.01c-1.56 1.56-1.56 4.09 0 5.66zm6.78-1.81c1.53 0.71 3.68 0.21 5.27-1.38 1.91-1.91 2.28-4.65 0.81-6.12-1.46-1.46-4.2-1.1-6.12 0.81-1.59 1.59-2.09 3.74-1.38 5.27l-9.76 9.76 1.41 1.41 6.89-6.87 6.88 6.88 1.41-1.41-6.88-6.88z"/>
  <path d="m314 150h-18c-1.1 0-2 0.9-2 2v8c0 1.1 0.9 2 2 2h18c1.1 0 2-0.9 2-2v-8c0-1.1-0.9-2-2-2zm0 10h-18v-8h2v4h2v-4h2v4h2v-4h2v4h2v-4h2v4h2v-4h2z"/>
  <path d="m121 150h-16v2h16zm1 10v-2l-1-5h-16l-1 5v2h1v6h10v-6h4v6h2v-6zm-9 4h-6v-4h6z"/>
  <path d="m160 147c-4.97 0-9 4.03-9 9s4.03 9 9 9c0.83 0 1.5-0.67 1.5-1.5 0-0.39-0.15-0.74-0.39-1.01-0.23-0.26-0.38-0.61-0.38-0.99 0-0.83 0.67-1.5 1.5-1.5h1.77c2.76 0 5-2.24 5-5 0-4.42-4.03-8-9-8zm-5.5 9c-0.83 0-1.5-0.67-1.5-1.5s0.67-1.5 1.5-1.5 1.5 0.67 1.5 1.5-0.67 1.5-1.5 1.5zm3-4c-0.83 0-1.5-0.67-1.5-1.5s0.67-1.5 1.5-1.5 1.5 0.67 1.5 1.5-0.67 1.5-1.5 1.5zm5 0c-0.83 0-1.5-0.67-1.5-1.5s0.67-1.5 1.5-1.5 1.5 0.67 1.5 1.5-0.67 1.5-1.5 1.5zm3 4c-0.83 0-1.5-0.67-1.5-1.5s0.67-1.5 1.5-1.5 1.5 0.67 1.5 1.5-0.67 1.5-1.5 1.5z"/>
  <path d="m266.41 202.58-9-9c-0.36-0.36-0.86-0.58-1.41-0.58h-7c-1.1 0-2 0.9-2 2v7c0 0.55 0.22 1.05 0.59 1.42l9 9c0.36 0.36 0.86 0.58 1.41 0.58s1.05-0.22 1.41-0.59l7-7c0.37-0.36 0.59-0.86 0.59-1.41s-0.23-1.06-0.59-1.42zm-15.91-4.58c-0.83 0-1.5-0.67-1.5-1.5s0.67-1.5 1.5-1.5 1.5 0.67 1.5 1.5-0.67 1.5-1.5 1.5z"/>
  <path d="m313.78 194h-17.778v11.111c0 2.456 1.989 4.445 4.444 4.445h6.667c2.456 0 4.445-1.989 4.445-4.445v-3.333h2.222c1.233 0 2.222-1 2.222-2.222v-3.334c0-1.233-0.989-2.222-2.222-2.222zm0 5.556h-2.222v-3.334h2.222zm-17.778 12.222h17.778v2.222h-17.778z"/>
  <path d="m28 198h-18c-1.1 0-2 0.9-2 2v8c0 1.1 0.9 2 2 2h18c1.1 0 2-0.9 2-2v-8c0-1.1-0.9-2-2-2zm0 10h-18v-8h2v4h2v-4h2v4h2v-4h2v4h2v-4h2v4h2v-4h2z"/>
  <path d="m169 198h-16v2h16zm1 10v-2l-1-5h-16l-1 5v2h1v6h10v-6h4v6h2v-6zm-9 4h-6v-4h6z"/>
  <path d="m208 194c-4.97 0-9 4.03-9 9s4.03 9 9 9c0.83 0 1.5-0.67 1.5-1.5 0-0.39-0.15-0.74-0.39-1.01-0.23-0.26-0.38-0.61-0.38-0.99 0-0.83 0.67-1.5 1.5-1.5h1.77c2.76 0 5-2.24 5-5 0-4.42-4.03-8-9-8zm-5.5 9c-0.83 0-1.5-0.67-1.5-1.5s0.67-1.5 1.5-1.5 1.5 0.67 1.5 1.5-0.67 1.5-1.5 1.5zm3-4c-0.83 0-1.5-0.67-1.5-1.5s0.67-1.5 1.5-1.5 1.5 0.67 1.5 1.5-0.67 1.5-1.5 1.5zm5 0c-0.83 0-1.5-0.67-1.5-1.5s0.67-1.5 1.5-1.5 1.5 0.67 1.5 1.5-0.67 1.5-1.5 1.5zm3 4c-0.83 0-1.5-0.67-1.5-1.5s0.67-1.5 1.5-1.5 1.5 0.67 1.5 1.5-0.67 1.5-1.5 1.5z"/>
  <path d="m66.36 203.21 2.83-2.83-7.02-7.01c-1.56 1.56-1.56 4.09 0 5.66zm6.78-1.81c1.53 0.71 3.68 0.21 5.27-1.38 1.91-1.91 2.28-4.65 0.81-6.12-1.46-1.46-4.2-1.1-6.12 0.81-1.59 1.59-2.09 3.74-1.38 5.27l-9.76 9.76 1.41 1.41 6.89-6.87 6.88 6.88 1.41-1.41-6.88-6.88z"/>
  <path d="m103 207h20v2h-20zm11.84-9.21c0.1-0.24 0.16-0.51 0.16-0.79 0-1.1-0.9-2-2-2s-2 0.9-2 2c0 0.28 0.06 0.55 0.16 0.79-3.91 0.81-6.89 4.14-7.16 8.21h18c-0.27-4.07-3.25-7.4-7.16-8.21z"/>
  <path d="m57 161h20v2h-20zm11.84-9.21c0.1-0.24 0.16-0.51 0.16-0.79 0-1.1-0.9-2-2-2s-2 0.9-2 2c0 0.28 0.06 0.55 0.16 0.79-3.91 0.81-6.89 4.14-7.16 8.21h18c-0.27-4.07-3.25-7.4-7.16-8.21z"/>
 </g>
</svg>
